<?xml version="1.0" encoding="utf-8"?>
<svg version="1.1" xmlns:xlink="http://www.w3.org/1999/xlink" width="30px" height="30px" xmlns="http://www.w3.org/2000/svg">
  <g transform="matrix(1 0 0 1 -27 -9 )">
    <path d="M 8.82352941176471 21.5959821428571  L 8.82352941176471 27.3214285714286  L 14.1176470588235 24.1071428571429  L 14.1176470588235 18.8504464285714  L 8.82352941176471 21.5959821428571  Z M 2.37132352941176 16.8247767857143  L 7.94117647058824 19.7209821428571  L 13.5110294117647 16.8247767857143  L 7.94117647058824 13.9285714285714  L 2.37132352941176 16.8247767857143  Z M 22.9411764705882 21.5959821428571  L 22.9411764705882 27.3214285714286  L 28.2352941176471 24.1071428571429  L 28.2352941176471 18.8504464285714  L 22.9411764705882 21.5959821428571  Z M 16.4889705882353 16.8247767857143  L 22.0588235294118 19.7209821428571  L 27.6286764705882 16.8247767857143  L 22.0588235294118 13.9285714285714  L 16.4889705882353 16.8247767857143  Z M 15.8823529411765 10.3459821428571  L 15.8823529411765 14.8158482142857  L 21.1764705882353 12.0535714285714  L 21.1764705882353 7.60044642857143  L 15.8823529411765 10.3459821428571  Z M 8.92003676470588 5.30691964285714  L 15 8.47098214285714  L 21.0799632352941 5.30691964285714  L 15 2.14285714285714  L 8.92003676470588 5.30691964285714  Z M 29.7104779411765 15.9709821428571  C 29.9034926470588 16.328125  30 16.71875  30 17.1428571428571  L 30 24.1071428571429  C 30 24.5089285714286  29.9126838235294 24.8828125  29.7380514705882 25.2287946428571  C 29.5634191176471 25.5747767857143  29.3244485294118 25.8370535714286  29.0211397058824 26.015625  L 22.8446691176471 29.765625  C 22.6148897058824 29.921875  22.3529411764706 30  22.0588235294118 30  C 21.7647058823529 30  21.5027573529412 29.921875  21.2729779411765 29.765625  L 15.0965073529412 26.015625  C 15.0597426470588 25.9933035714286  15.0275735294118 25.9709821428571  15 25.9486607142857  C 14.9816176470588 25.9709821428571  14.9494485294118 25.9933035714286  14.9034926470588 26.015625  L 8.72702205882353 29.765625  C 8.49724264705882 29.921875  8.23529411764706 30  7.94117647058824 30  C 7.64705882352941 30  7.38511029411765 29.921875  7.15533088235294 29.765625  L 0.978860294117647 26.015625  C 0.675551470588235 25.8370535714286  0.436580882352941 25.5747767857143  0.261948529411765 25.2287946428571  C 0.0873161764705882 24.8828125  0 24.5089285714286  0 24.1071428571429  L 0 17.1428571428571  C 0 16.71875  0.0988051470588235 16.328125  0.296415441176471 15.9709821428571  C 0.494025735294118 15.6138392857143  0.753676470588235 15.3459821428571  1.07536764705882 15.1674107142857  L 7.05882352941176 12.0535714285714  L 7.05882352941176 5.35714285714286  C 7.05882352941176 4.93303571428571  7.15762867647059 4.54241071428571  7.35523897058824 4.18526785714286  C 7.55284926470588 3.828125  7.8125 3.56026785714285  8.13419117647059 3.38169642857143  L 14.3106617647059 0.167410714285713  C 14.5220588235294 0.0558035714285754  14.7518382352941 0  15 0  C 15.2481617647059 0  15.4779411764706 0.0558035714285754  15.6893382352941 0.167410714285713  L 21.8658088235294 3.38169642857143  C 22.1875 3.56026785714285  22.4471507352941 3.828125  22.6447610294118 4.18526785714286  C 22.8423713235294 4.54241071428571  22.9411764705882 4.93303571428571  22.9411764705882 5.35714285714286  L 22.9411764705882 12.0535714285714  L 28.9246323529412 15.1674107142857  C 29.2555147058824 15.3459821428571  29.5174632352941 15.6138392857143  29.7104779411765 15.9709821428571  Z " fill-rule="nonzero" fill="#ffffff" stroke="none" transform="matrix(1 0 0 1 27 9 )" />
  </g>
</svg>