<?xml version="1.0" encoding="utf-8"?>
<svg version="1.1" xmlns:xlink="http://www.w3.org/1999/xlink" width="30px" height="30px" xmlns="http://www.w3.org/2000/svg">
  <g transform="matrix(1 0 0 1 -27 -8 )">
    <path d="M 2 27  L 30 27  L 30 30  L 0 30  L 0 0  L 2 0  L 2 27  Z M 27.9931640625 2.67578125  C 28.0810546875 2.79296875  28.125 2.94270833333333  28.125 3.125  L 28.125 11.62109375  C 28.125 11.89453125  28.02978515625 12.0865885416667  27.83935546875 12.197265625  C 27.64892578125 12.3079427083333  27.4755859375 12.2591145833333  27.3193359375 12.05078125  L 25.546875 9.6875  L 16.2744140625 22.05078125  C 16.1767578125 22.1809895833333  16.064453125 22.24609375  15.9375 22.24609375  C 15.810546875 22.24609375  15.6982421875 22.1809895833333  15.6005859375 22.05078125  L 12.1875 17.5  L 6.09375 25.625  L 3.28125 21.875  L 11.8505859375 10.44921875  C 11.9482421875 10.3190104166667  12.060546875 10.25390625  12.1875 10.25390625  C 12.314453125 10.25390625  12.4267578125 10.3190104166667  12.5244140625 10.44921875  L 15.9375 15  L 22.734375 5.9375  L 20.9619140625 3.57421875  C 20.8056640625 3.36588541666666  20.76904296875 3.134765625  20.85205078125 2.880859375  C 20.93505859375 2.626953125  21.0791015625 2.5  21.2841796875 2.5  L 27.65625 2.5  C 27.79296875 2.5  27.9052734375 2.55859375  27.9931640625 2.67578125  Z " fill-rule="nonzero" fill="#ffffff" stroke="none" transform="matrix(1 0 0 1 27 8 )" />
  </g>
</svg>