<?xml version="1.0" encoding="utf-8"?>
<svg version="1.1" xmlns:xlink="http://www.w3.org/1999/xlink" width="30px" height="30px" xmlns="http://www.w3.org/2000/svg">
  <g transform="matrix(1 0 0 1 -24 -7 )">
    <path d="M 29.9360795454545 23.2457386363636  C 29.9786931818182 23.3451704545455  30 23.4943181818182  30 23.6931818181818  C 30 24.0767045454545  29.9289772727273 24.5774147727273  29.7869318181818 25.1953125  C 29.6448863636364 25.8132102272727  29.4957386363636 26.2997159090909  29.3394886363636 26.6548295454545  C 29.0411931818182 27.3650568181818  28.1747159090909 28.1178977272727  26.7400568181818 28.9133522727273  C 25.4048295454545 29.6377840909091  24.0838068181818 30  22.7769886363636 30  C 22.3934659090909 30  22.0170454545455 29.9751420454545  21.6477272727273 29.9254261363636  C 21.2784090909091 29.8757102272727  20.8700284090909 29.7869318181818  20.4225852272727 29.6590909090909  C 19.9751420454545 29.53125  19.6413352272727 29.4282670454545  19.4211647727273 29.3501420454545  C 19.2009943181818 29.2720170454545  18.8068181818182 29.1264204545455  18.2386363636364 28.9133522727273  C 17.6704545454545 28.7002840909091  17.3224431818182 28.5724431818182  17.1946022727273 28.5298295454545  C 15.8025568181818 28.0326704545455  14.5596590909091 27.4431818181818  13.4659090909091 26.7613636363636  C 11.6619318181818 25.6392045454545  9.78693181818182 24.1051136363636  7.84090909090909 22.1590909090909  C 5.89488636363636 20.2130681818182  4.36079545454546 18.3380681818182  3.23863636363636 16.5340909090909  C 2.55681818181818 15.4403409090909  1.96732954545455 14.1974431818182  1.47017045454545 12.8053977272727  C 1.42755681818182 12.6775568181818  1.29971590909091 12.3295454545455  1.08664772727273 11.7613636363636  C 0.873579545454545 11.1931818181818  0.727982954545455 10.7990056818182  0.649857954545455 10.5788352272727  C 0.571732954545455 10.3586647727273  0.46875 10.0248579545455  0.340909090909091 9.57741477272727  C 0.213068181818182 9.12997159090909  0.124289772727273 8.72159090909091  0.0745738636363636 8.35227272727273  C 0.0248579545454545 7.98295454545454  0 7.60653409090909  0 7.22301136363636  C 0 5.91619318181818  0.362215909090909 4.59517045454545  1.08664772727273 3.25994318181818  C 1.88210227272727 1.82528409090909  2.63494318181818 0.958806818181819  3.34517045454545 0.660511363636362  C 3.70028409090909 0.504261363636361  4.18678977272727 0.355113636363633  4.8046875 0.213068181818181  C 5.42258522727273 0.071022727272726  5.92329545454546 0  6.30681818181818 0  C 6.50568181818182 0  6.65482954545455 0.0213068181818188  6.75426136363636 0.063920454545453  C 7.00994318181818 0.149147727272728  7.38636363636364 0.688920454545454  7.88352272727273 1.68323863636364  C 8.03977272727273 1.953125  8.25284090909091 2.33664772727272  8.52272727272727 2.83380681818182  C 8.79261363636364 3.33096590909091  9.04119318181818 3.78196022727273  9.26846590909091 4.18678977272727  C 9.49573863636364 4.59161931818182  9.71590909090909 4.97159090909091  9.92897727272727 5.32670454545455  C 9.97159090909091 5.38352272727272  10.0958806818182 5.56107954545455  10.3018465909091 5.859375  C 10.5078125 6.15767045454545  10.6605113636364 6.40980113636363  10.7599431818182 6.61576704545455  C 10.859375 6.82173295454545  10.9090909090909 7.02414772727272  10.9090909090909 7.22301136363636  C 10.9090909090909 7.50710227272727  10.7066761363636 7.86221590909091  10.3018465909091 8.28835227272727  C 9.89701704545455 8.71448863636364  9.45667613636364 9.10511363636363  8.98082386363636 9.46022727272727  C 8.50497159090909 9.8153409090909  8.06463068181818 10.1917613636364  7.65980113636364 10.5894886363636  C 7.25497159090909 10.9872159090909  7.05255681818182 11.3139204545455  7.05255681818182 11.5696022727273  C 7.05255681818182 11.6974431818182  7.08806818181818 11.8572443181818  7.15909090909091 12.0490056818182  C 7.23011363636364 12.2407670454545  7.29048295454546 12.3863636363636  7.34019886363636 12.4857954545455  C 7.38991477272727 12.5852272727273  7.48934659090909 12.7556818181818  7.63849431818182 12.9971590909091  C 7.78764204545455 13.2386363636364  7.86931818181818 13.3735795454545  7.88352272727273 13.4019886363636  C 8.96306818181818 15.3480113636364  10.1988636363636 17.0170454545455  11.5909090909091 18.4090909090909  C 12.9829545454545 19.8011363636364  14.6519886363636 21.0369318181818  16.5980113636364 22.1164772727273  C 16.6264204545455 22.1306818181818  16.7613636363636 22.2123579545455  17.0028409090909 22.3615056818182  C 17.2443181818182 22.5106534090909  17.4147727272727 22.6100852272727  17.5142045454545 22.6598011363636  C 17.6136363636364 22.7095170454545  17.7592329545455 22.7698863636364  17.9509943181818 22.8409090909091  C 18.1427556818182 22.9119318181818  18.3025568181818 22.9474431818182  18.4303977272727 22.9474431818182  C 18.6860795454545 22.9474431818182  19.0127840909091 22.7450284090909  19.4105113636364 22.3401988636364  C 19.8082386363636 21.9353693181818  20.1846590909091 21.4950284090909  20.5397727272727 21.0191761363636  C 20.8948863636364 20.5433238636364  21.2855113636364 20.1029829545455  21.7116477272727 19.6981534090909  C 22.1377840909091 19.2933238636364  22.4928977272727 19.0909090909091  22.7769886363636 19.0909090909091  C 22.9758522727273 19.0909090909091  23.1782670454545 19.140625  23.3842329545455 19.2400568181818  C 23.5901988636364 19.3394886363636  23.8423295454545 19.4921875  24.140625 19.6981534090909  C 24.4389204545455 19.9041193181818  24.6164772727273 20.0284090909091  24.6732954545455 20.0710227272727  C 25.0284090909091 20.2840909090909  25.4083806818182 20.5042613636364  25.8132102272727 20.7315340909091  C 26.2180397727273 20.9588068181818  26.6690340909091 21.2073863636364  27.1661931818182 21.4772727272727  C 27.6633522727273 21.7471590909091  28.046875 21.9602272727273  28.3167613636364 22.1164772727273  C 29.3110795454545 22.6136363636364  29.8508522727273 22.9900568181818  29.9360795454545 23.2457386363636  Z " fill-rule="nonzero" fill="#ffffff" stroke="none" transform="matrix(1 0 0 1 24 7 )" />
  </g>
</svg>