<?xml version="1.0" encoding="utf-8"?>
<svg version="1.1" xmlns:xlink="http://www.w3.org/1999/xlink" width="30px" height="24px" xmlns="http://www.w3.org/2000/svg">
  <g transform="matrix(1 0 0 1 -27 -12 )">
    <path d="M 5.80078125 16.8153409090909  C 6.21930803571429 16.3892045454545  6.42857142857143 15.875  6.42857142857143 15.2727272727273  C 6.42857142857143 14.6704545454545  6.21930803571429 14.15625  5.80078125 13.7301136363636  C 5.38225446428571 13.3039772727273  4.87723214285714 13.0909090909091  4.28571428571429 13.0909090909091  C 3.69419642857143 13.0909090909091  3.18917410714286 13.3039772727273  2.77064732142857 13.7301136363636  C 2.35212053571429 14.15625  2.14285714285714 14.6704545454545  2.14285714285714 15.2727272727273  C 2.14285714285714 15.875  2.35212053571429 16.3892045454545  2.77064732142857 16.8153409090909  C 3.18917410714286 17.2414772727273  3.69419642857143 17.4545454545455  4.28571428571429 17.4545454545455  C 4.87723214285714 17.4545454545455  5.38225446428571 17.2414772727273  5.80078125 16.8153409090909  Z M 9.01506696428572 9.17897727272727  C 9.43359375 8.75284090909091  9.64285714285714 8.23863636363636  9.64285714285714 7.63636363636364  C 9.64285714285714 7.03409090909091  9.43359375 6.51988636363636  9.01506696428572 6.09375  C 8.59654017857143 5.66761363636364  8.09151785714286 5.45454545454546  7.5 5.45454545454546  C 6.90848214285714 5.45454545454546  6.40345982142857 5.66761363636364  5.98493303571429 6.09375  C 5.56640625 6.51988636363636  5.35714285714286 7.03409090909091  5.35714285714286 7.63636363636364  C 5.35714285714286 8.23863636363636  5.56640625 8.75284090909091  5.98493303571429 9.17897727272727  C 6.40345982142857 9.60511363636364  6.90848214285714 9.81818181818182  7.5 9.81818181818182  C 8.09151785714286 9.81818181818182  8.59654017857143 9.60511363636364  9.01506696428572 9.17897727272727  Z M 18.0133928571429 17.3863636363636  C 17.7678571428571 16.7386363636364  17.3660714285714 16.2215909090909  16.8080357142857 15.8352272727273  L 18.4988839285714 9.32386363636364  C 18.5658482142857 9.02840909090909  18.5239955357143 8.75284090909091  18.3733258928571 8.49715909090909  C 18.22265625 8.24147727272727  18.0078125 8.07386363636363  17.7287946428571 7.99431818181818  C 17.4497767857143 7.91477272727273  17.1819196428571 7.95170454545455  16.9252232142857 8.10511363636364  C 16.6685267857143 8.25852272727273  16.5011160714286 8.48295454545454  16.4229910714286 8.77840909090909  L 14.7321428571429 15.2897727272727  C 14.0625 15.3465909090909  13.4654017857143 15.59375  12.9408482142857 16.03125  C 12.4162946428571 16.46875  12.0647321428571 17.0284090909091  11.8861607142857 17.7102272727273  C 11.6629464285714 18.5852272727273  11.7745535714286 19.4147727272727  12.2209821428571 20.1988636363636  C 12.6674107142857 20.9829545454545  13.3203125 21.4886363636364  14.1796875 21.7159090909091  C 15.0390625 21.9431818181818  15.8537946428571 21.8295454545455  16.6238839285714 21.375  C 17.3939732142857 20.9204545454545  17.890625 20.2556818181818  18.1138392857143 19.3806818181818  C 18.2924107142857 18.6988636363636  18.2589285714286 18.0340909090909  18.0133928571429 17.3863636363636  Z M 27.2293526785714 16.8153409090909  C 27.6478794642857 16.3892045454545  27.8571428571429 15.875  27.8571428571429 15.2727272727273  C 27.8571428571429 14.6704545454545  27.6478794642857 14.15625  27.2293526785714 13.7301136363636  C 26.8108258928571 13.3039772727273  26.3058035714286 13.0909090909091  25.7142857142857 13.0909090909091  C 25.1227678571429 13.0909090909091  24.6177455357143 13.3039772727273  24.19921875 13.7301136363636  C 23.7806919642857 14.15625  23.5714285714286 14.6704545454545  23.5714285714286 15.2727272727273  C 23.5714285714286 15.875  23.7806919642857 16.3892045454545  24.19921875 16.8153409090909  C 24.6177455357143 17.2414772727273  25.1227678571429 17.4545454545455  25.7142857142857 17.4545454545455  C 26.3058035714286 17.4545454545455  26.8108258928571 17.2414772727273  27.2293526785714 16.8153409090909  Z M 16.5150669642857 5.90625  C 16.93359375 5.48011363636364  17.1428571428571 4.96590909090909  17.1428571428571 4.36363636363636  C 17.1428571428571 3.76136363636363  16.93359375 3.24715909090909  16.5150669642857 2.82102272727273  C 16.0965401785714 2.39488636363636  15.5915178571429 2.18181818181818  15 2.18181818181818  C 14.4084821428571 2.18181818181818  13.9034598214286 2.39488636363636  13.4849330357143 2.82102272727273  C 13.06640625 3.24715909090909  12.8571428571429 3.76136363636363  12.8571428571429 4.36363636363636  C 12.8571428571429 4.96590909090909  13.06640625 5.48011363636364  13.4849330357143 5.90625  C 13.9034598214286 6.33238636363636  14.4084821428571 6.54545454545455  15 6.54545454545455  C 15.5915178571429 6.54545454545455  16.0965401785714 6.33238636363636  16.5150669642857 5.90625  Z M 24.0150669642857 9.17897727272727  C 24.43359375 8.75284090909091  24.6428571428571 8.23863636363636  24.6428571428571 7.63636363636364  C 24.6428571428571 7.03409090909091  24.43359375 6.51988636363636  24.0150669642857 6.09375  C 23.5965401785714 5.66761363636364  23.0915178571429 5.45454545454546  22.5 5.45454545454546  C 21.9084821428571 5.45454545454546  21.4034598214286 5.66761363636364  20.9849330357143 6.09375  C 20.56640625 6.51988636363636  20.3571428571429 7.03409090909091  20.3571428571429 7.63636363636364  C 20.3571428571429 8.23863636363636  20.56640625 8.75284090909091  20.9849330357143 9.17897727272727  C 21.4034598214286 9.60511363636364  21.9084821428571 9.81818181818182  22.5 9.81818181818182  C 23.0915178571429 9.81818181818182  23.5965401785714 9.60511363636364  24.0150669642857 9.17897727272727  Z M 28.8113839285714 9.34090909090909  C 29.6037946428571 11.2272727272727  30 13.2045454545455  30 15.2727272727273  C 30 18.2386363636364  29.2131696428571 20.9829545454545  27.6395089285714 23.5056818181818  C 27.4274553571429 23.8352272727273  27.1261160714286 24  26.7354910714286 24  L 3.26450892857143 24  C 2.87388392857143 24  2.57254464285714 23.8352272727273  2.36049107142857 23.5056818181818  C 0.786830357142857 20.9943181818182  0 18.25  0 15.2727272727273  C 0 13.2045454545455  0.396205357142857 11.2272727272727  1.18861607142857 9.34090909090909  C 1.98102678571429 7.45454545454545  3.046875 5.82954545454546  4.38616071428571 4.46590909090909  C 5.72544642857143 3.10227272727273  7.32142857142857 2.01704545454545  9.17410714285714 1.21022727272727  C 11.0267857142857 0.403409090909089  12.96875 0  15 0  C 17.03125 0  18.9732142857143 0.403409090909089  20.8258928571429 1.21022727272727  C 22.6785714285714 2.01704545454545  24.2745535714286 3.10227272727273  25.6138392857143 4.46590909090909  C 26.953125 5.82954545454546  28.0189732142857 7.45454545454545  28.8113839285714 9.34090909090909  Z " fill-rule="nonzero" fill="#014085" stroke="none" transform="matrix(1 0 0 1 27 12 )" />
  </g>
</svg>