<?xml version="1.0" encoding="utf-8"?>
<svg version="1.1" xmlns:xlink="http://www.w3.org/1999/xlink" width="36px" height="36px" xmlns="http://www.w3.org/2000/svg">
  <g transform="matrix(1 0 0 1 -59 -163 )">
    <path d="M 30 10.2857142857143  C 30 12.2544642857143  29.3828125 14.0758928571429  28.1484375 15.75  C 28.8828125 15.9375  29.58203125 16.1919642857143  30.24609375 16.5133928571429  C 30.91015625 16.8348214285714  31.60546875 17.3236607142857  32.33203125 17.9799107142857  C 33.05859375 18.6361607142857  33.6796875 19.4095982142857  34.1953125 20.3002232142857  C 34.7109375 21.1908482142857  35.140625 22.3426339285714  35.484375 23.7555803571429  C 35.828125 25.1685267857143  36 26.7522321428571  36 28.5066964285714  C 36 30.5691964285714  35.21875 32.3337053571429  33.65625 33.8002232142857  C 32.09375 35.2667410714286  30.2109375 36  28.0078125 36  L 7.9921875 36  C 5.7890625 36  3.90625 35.2667410714286  2.34375 33.8002232142857  C 0.78125 32.3337053571429  0 30.5691964285714  0 28.5066964285714  C 0 26.7522321428571  0.171875 25.1685267857143  0.515625 23.7555803571429  C 0.859375 22.3426339285714  1.2890625 21.1908482142857  1.8046875 20.3002232142857  C 2.3203125 19.4095982142857  2.94140625 18.6361607142857  3.66796875 17.9799107142857  C 4.39453125 17.3236607142857  5.08984375 16.8348214285714  5.75390625 16.5133928571429  C 6.41796875 16.1919642857143  7.1171875 15.9375  7.8515625 15.75  C 6.6171875 14.0758928571429  6 12.2544642857143  6 10.2857142857143  C 6 8.89285714285714  6.31640625 7.56361607142857  6.94921875 6.29799107142857  C 7.58203125 5.03236607142857  8.4375 3.9375  9.515625 3.01339285714286  C 10.59375 2.08928571428571  11.87109375 1.35602678571429  13.34765625 0.81361607142857  C 14.82421875 0.271205357142855  16.375 0  18 0  C 19.625 0  21.17578125 0.271205357142855  22.65234375 0.81361607142857  C 24.12890625 1.35602678571429  25.40625 2.08928571428571  26.484375 3.01339285714286  C 27.5625 3.9375  28.41796875 5.03236607142857  29.05078125 6.29799107142857  C 29.68359375 7.56361607142857  30 8.89285714285714  30 10.2857142857143  Z M 24.36328125 4.83147321428572  C 22.60546875 3.32477678571429  20.484375 2.57142857142857  18 2.57142857142857  C 15.515625 2.57142857142857  13.39453125 3.32477678571429  11.63671875 4.83147321428572  C 9.87890625 6.33816964285714  9 8.15625  9 10.2857142857143  C 9 12.4151785714286  9.87890625 14.2332589285714  11.63671875 15.7399553571429  C 13.39453125 17.2466517857143  15.515625 18  18 18  C 20.484375 18  22.60546875 17.2466517857143  24.36328125 15.7399553571429  C 26.12109375 14.2332589285714  27 12.4151785714286  27 10.2857142857143  C 27 8.15625  26.12109375 6.33816964285714  24.36328125 4.83147321428572  Z M 7.9921875 33  L 28.0078125 33  C 29.3828125 33.4285714285714  30.55859375 32.9497767857143  31.53515625 31.9921875  C 32.51171875 31.0345982142857  33 29.8727678571429  33 28.5066964285714  C 33 25.3058035714286  32.38671875 22.78125  31.16015625 20.9330357142857  C 29.93359375 19.0848214285714  28.171875 18.1138392857143  25.875 18.0200892857143  C 23.609375 19.7209821428571  20.984375 20.5714285714286  18 20.5714285714286  C 15.015625 20.5714285714286  12.390625 19.7209821428571  10.125 18.0200892857143  C 7.828125 18.1138392857143  6.06640625 19.0848214285714  4.83984375 20.9330357142857  C 3.61328125 22.78125  3 25.3058035714286  3 28.5066964285714  C 3 29.8727678571429  3.48828125 31.0345982142857  4.46484375 31.9921875  C 5.44140625 32.9497767857143  6.6171875 33.4285714285714  7.9921875 33  Z " fill-rule="nonzero" fill="#fbfbfb" stroke="none" transform="matrix(1 0 0 1 59 163 )" />
  </g>
</svg>