<?xml version="1.0" encoding="utf-8"?>
<svg version="1.1" xmlns:xlink="http://www.w3.org/1999/xlink" width="34px" height="40px" xmlns="http://www.w3.org/2000/svg">
  <g transform="matrix(1 0 0 1 -25 -14 )">
    <path d="M 28.3333333333333 11.4285714285714  C 28.3333333333333 13.6160714285714  27.7504340277778 15.6398809523809  26.5846354166667 17.5  C 27.2782118055556 17.7083333333333  27.9385850694444 17.9910714285714  28.5657552083333 18.3482142857143  C 29.1929253472222 18.7053571428571  29.849609375 19.2485119047619  30.5358072916667 19.9776785714286  C 31.2220052083333 20.7068452380952  31.80859375 21.5662202380952  32.2955729166667 22.5558035714286  C 32.7825520833333 23.5453869047619  33.1883680555556 24.8251488095238  33.5130208333333 26.3950892857143  C 33.8376736111111 27.9650297619048  34 29.7247023809524  34 31.6741071428571  C 34 33.9657738095238  33.2621527777778 35.9263392857143  31.7864583333333 37.5558035714286  C 30.3107638888889 39.1852678571429  28.5325520833333 40  26.4518229166667 40  L 7.54817708333333 40  C 5.46744791666667 40  3.68923611111111 39.1852678571429  2.21354166666667 37.5558035714286  C 0.737847222222222 35.9263392857143  0 33.9657738095238  0 31.6741071428571  C 0 29.7247023809524  0.162326388888889 27.9650297619048  0.486979166666667 26.3950892857143  C 0.811631944444445 24.8251488095238  1.21744791666667 23.5453869047619  1.70442708333333 22.5558035714286  C 2.19140625 21.5662202380952  2.77799479166667 20.7068452380952  3.46419270833333 19.9776785714286  C 4.150390625 19.2485119047619  4.80707465277778 18.7053571428571  5.43424479166667 18.3482142857143  C 6.06141493055556 17.9910714285714  6.72178819444444 17.7083333333333  7.41536458333333 17.5  C 6.24956597222222 15.6398809523809  5.66666666666667 13.6160714285714  5.66666666666667 11.4285714285714  C 5.66666666666667 9.88095238095238  5.96549479166667 8.40401785714286  6.56315104166667 6.99776785714286  C 7.16080729166667 5.59151785714286  7.96875 4.375  8.98697916666667 3.34821428571428  C 10.0052083333333 2.32142857142857  11.2115885416667 1.50669642857143  12.6061197916667 0.904017857142856  C 14.0006510416667 0.301339285714284  15.4652777777778 0  17 0  C 18.5347222222222 0  19.9993489583333 0.301339285714284  21.3938802083333 0.904017857142856  C 22.7884114583333 1.50669642857143  23.9947916666667 2.32142857142857  25.0130208333333 3.34821428571428  C 26.03125 4.375  26.8391927083333 5.59151785714286  27.4368489583333 6.99776785714286  C 28.0345052083333 8.40401785714286  28.3333333333333 9.88095238095238  28.3333333333333 11.4285714285714  Z M 23.009765625 5.36830357142857  C 21.349609375 3.69419642857143  19.3463541666667 2.85714285714286  17 2.85714285714286  C 14.6536458333333 2.85714285714286  12.650390625 3.69419642857143  10.990234375 5.36830357142857  C 9.330078125 7.04241071428572  8.5 9.0625  8.5 11.4285714285714  C 8.5 13.7946428571429  9.330078125 15.8147321428571  10.990234375 17.4888392857143  C 12.650390625 19.1629464285714  14.6536458333333 20  17 20  C 19.3463541666667 20  21.349609375 19.1629464285714  23.009765625 17.4888392857143  C 24.669921875 15.8147321428571  25.5 13.7946428571429  25.5 11.4285714285714  C 25.5 9.0625  24.669921875 7.04241071428572  23.009765625 5.36830357142857  Z M 7.54817708333333 37  L 26.4518229166667 37  C 27.7504340277778 37.1428571428571  28.8608940972222 36.6108630952381  29.783203125 35.546875  C 30.7055121527778 34.4828869047619  31.1666666666667 33.1919642857143  31.1666666666667 31.6741071428571  C 31.1666666666667 28.1175595238095  30.5874565972222 25.3125  29.4290364583333 23.2589285714286  C 28.2706163194444 21.2053571428571  26.6067708333333 20.1264880952381  24.4375 20.0223214285714  C 22.2977430555556 21.9122023809524  19.8185763888889 22.8571428571429  17 22.8571428571429  C 14.1814236111111 22.8571428571429  11.7022569444444 21.9122023809524  9.5625 20.0223214285714  C 7.39322916666667 20.1264880952381  5.72938368055556 21.2053571428571  4.57096354166667 23.2589285714286  C 3.41254340277778 25.3125  2.83333333333333 28.1175595238095  2.83333333333333 31.6741071428571  C 2.83333333333333 33.1919642857143  3.29448784722222 34.4828869047619  4.216796875 35.546875  C 5.13910590277778 36.6108630952381  6.24956597222222 37.1428571428571  7.54817708333333 37  Z " fill-rule="nonzero" fill="#014085" stroke="none" transform="matrix(1 0 0 1 25 14 )" />
  </g>
</svg>