<?xml version="1.0" encoding="utf-8"?>
<svg version="1.1" xmlns:xlink="http://www.w3.org/1999/xlink" width="15px" height="12px" xmlns="http://www.w3.org/2000/svg">
  <g transform="matrix(1 0 0 1 -638 -118 )">
    <path d="M 14.6464646464646 8.96969696969697  C 14.8821548821549 9.15824915824916  15 9.38720538720539  15 9.65656565656566  C 15 9.92592592592593  14.8821548821549 10.1548821548822  14.6464646464646 10.3434343434343  L 12.9292929292929 11.7171717171717  C 12.6936026936027 11.9057239057239  12.4074074074074 12  12.0707070707071 12  C 11.7340067340067 12  11.4478114478114 11.9057239057239  11.2121212121212 11.7171717171717  L 7.5 8.74747474747475  L 3.78787878787879 11.7171717171717  C 3.55218855218855 11.9057239057239  3.26599326599327 12  2.92929292929293 12  C 2.59259259259259 12  2.30639730639731 11.9057239057239  2.07070707070707 11.7171717171717  L 0.353535353535354 10.3434343434343  C 0.117845117845118 10.1548821548822  0 9.92592592592593  0 9.65656565656566  C 0 9.38720538720539  0.117845117845118 9.15824915824916  0.353535353535354 8.96969696969697  L 4.06565656565657 6  L 0.353535353535354 3.03030303030303  C 0.117845117845118 2.84175084175084  0 2.61279461279461  0 2.34343434343434  C 0 2.07407407407407  0.117845117845118 1.84511784511784  0.353535353535354 1.65656565656566  L 2.07070707070707 0.282828282828283  C 2.30639730639731 0.0942760942760938  2.59259259259259 0  2.92929292929293 0  C 3.26599326599327 0  3.55218855218855 0.0942760942760938  3.78787878787879 0.282828282828283  L 7.5 3.25252525252525  L 11.2121212121212 0.282828282828283  C 11.4478114478114 0.0942760942760938  11.7340067340067 0  12.0707070707071 0  C 12.4074074074074 0  12.6936026936027 0.0942760942760938  12.9292929292929 0.282828282828283  L 14.6464646464646 1.65656565656566  C 14.8821548821549 1.84511784511784  15 2.07407407407407  15 2.34343434343434  C 15 2.61279461279461  14.8821548821549 2.84175084175084  14.6464646464646 3.03030303030303  L 10.9343434343434 6  L 14.6464646464646 8.96969696969697  Z " fill-rule="nonzero" fill="#333333" stroke="none" transform="matrix(1 0 0 1 638 118 )" />
  </g>
</svg>