<?xml version="1.0" encoding="utf-8"?>
<svg version="1.1" xmlns:xlink="http://www.w3.org/1999/xlink" width="19px" height="15px" xmlns="http://www.w3.org/2000/svg">
  <g transform="matrix(1 0 0 1 -249 -116 )">
    <path d="M 11.65234375 9.19921875  C 12.6533453525641 8.40895432692308  13.1538461538462 7.45793269230769  13.1538461538462 6.34615384615385  C 13.1538461538462 5.234375  12.6533453525641 4.28335336538461  11.65234375 3.49308894230769  C 10.6513421474359 2.70282451923077  9.44671474358974 2.30769230769231  8.03846153846154 2.30769230769231  C 6.63020833333333 2.30769230769231  5.42558092948718 2.70282451923077  4.42457932692308 3.49308894230769  C 3.42357772435897 4.28335336538461  2.92307692307692 5.234375  2.92307692307692 6.34615384615385  C 2.92307692307692 7.45793269230769  3.42357772435897 8.40895432692308  4.42457932692308 9.19921875  C 5.42558092948718 9.98948317307692  6.63020833333333 10.3846153846154  8.03846153846154 10.3846153846154  C 9.44671474358974 10.3846153846154  10.6513421474359 9.98948317307692  11.65234375 9.19921875  Z M 18.5775240384615 13.0348557692308  C 18.8591746794872 13.2572115384615  19 13.5276442307692  19 13.8461538461538  C 19 14.1586538461538  18.8553685897436 14.4290865384615  18.5661057692308 14.6574519230769  C 18.2768429487179 14.8858173076923  17.9342948717949 15  17.5384615384615 15  C 17.1274038461538 15  16.7848557692308 14.8858173076923  16.5108173076923 14.6574519230769  L 12.5943509615385 11.5745192307692  C 11.2317708333333 12.3197115384615  9.71314102564103 12.6923076923077  8.03846153846154 12.6923076923077  C 6.94991987179487 12.6923076923077  5.90895432692308 12.5255408653846  4.91556490384615 12.1920072115385  C 3.92217548076923 11.8584735576923  3.06580528846154 11.4077524038462  2.34645432692308 10.83984375  C 1.62710336538462 10.2719350961538  1.05618990384615 9.59585336538461  0.633713942307692 8.81159855769231  C 0.211237980769231 8.02734375  0 7.20552884615384  0 6.34615384615385  C 0 5.48677884615384  0.211237980769231 4.66496394230769  0.633713942307692 3.88070913461538  C 1.05618990384615 3.09645432692308  1.62710336538462 2.42037259615385  2.34645432692308 1.85246394230769  C 3.06580528846154 1.28455528846154  3.92217548076923 0.833834134615384  4.91556490384615 0.500300480769231  C 5.90895432692308 0.166766826923077  6.94991987179487 0  8.03846153846154 0  C 9.12700320512821 0  10.16796875 0.166766826923077  11.1613581730769 0.500300480769231  C 12.1547475961538 0.833834134615384  13.0111177884615 1.28455528846154  13.73046875 1.85246394230769  C 14.4498197115385 2.42037259615385  15.0207331730769 3.09645432692308  15.4432091346154 3.88070913461538  C 15.8656850961538 4.66496394230769  16.0769230769231 5.48677884615384  16.0769230769231 6.34615384615385  C 16.0769230769231 7.66826923076923  15.604967948718 8.8671875  14.6610576923077 9.94290865384615  L 18.5775240384615 13.0348557692308  Z " fill-rule="nonzero" fill="#aaaaaa" stroke="none" transform="matrix(1 0 0 1 249 116 )" />
  </g>
</svg>