<?xml version="1.0" encoding="utf-8"?>
<svg version="1.1" xmlns:xlink="http://www.w3.org/1999/xlink" width="300px" height="112px" xmlns="http://www.w3.org/2000/svg">
  <g transform="matrix(1 0 0 1 -230 -205 )">
    <path d="M 230 205  L 530 205  L 530 317  L 230 317  L 230 205  " fill-rule="nonzero" fill="#cccccc" stroke="none" />
    <path d="M 238 213  L 522 213  L 522 309  L 238 309  L 238 213  " fill-rule="nonzero" fill="#ffffff" stroke="none" />
    <path d="M 394.4 238.6  C 389.696 238.6  386 234.904  386 230.2  C 386 225.496  389.696 221.8  394.4 221.8  C 399.104 221.8  402.8 225.496  402.8 230.2  C 402.8 234.904  399.104 238.6  394.4 238.6  " fill-rule="nonzero" fill="#cccccc" stroke="none" />
    <path d="M 241 306  L 241 256.5  L 310.5 234  L 407.8 285.84  L 463.4 247.5  L 519 285.84  L 519 306  L 241 306  " fill-rule="nonzero" fill="#169bd5" stroke="none" />
  </g>
</svg>