<?xml version="1.0" encoding="utf-8"?>
<svg version="1.1" xmlns:xlink="http://www.w3.org/1999/xlink" width="43px" height="50px" xmlns="http://www.w3.org/2000/svg">
  <g transform="matrix(1 0 0 1 -58 -165 )">
    <path d="M 35.8333333333333 14.2857142857143  C 35.8333333333333 17.0200892857143  35.0961371527778 19.5498511904762  33.6217447916667 21.875  C 34.4989149305556 22.1354166666667  35.3340928819444 22.4888392857143  36.1272786458333 22.9352678571429  C 36.9204644097222 23.3816964285714  37.7509765625 24.0606398809524  38.6188151041667 24.9720982142857  C 39.4866536458333 25.883556547619  40.228515625 26.957775297619  40.8444010416667 28.1947544642857  C 41.4602864583333 29.4317336309524  41.9735243055556 31.0314360119048  42.3841145833333 32.9938616071429  C 42.7947048611111 34.956287202381  43 37.1558779761905  43 39.5926339285714  C 43 42.4572172619048  42.0668402777778 44.9079241071429  40.2005208333333 46.9447544642857  C 38.3342013888889 48.9815848214286  36.0852864583333 50  33.4537760416667 50  L 9.54622395833333 50  C 6.91471354166667 50  4.66579861111111 48.9815848214286  2.79947916666667 46.9447544642857  C 0.933159722222222 44.9079241071429  0 42.4572172619048  0 39.5926339285714  C 0 37.1558779761905  0.205295138888889 34.956287202381  0.615885416666667 32.9938616071429  C 1.02647569444444 31.0314360119048  1.53971354166667 29.4317336309524  2.15559895833333 28.1947544642857  C 2.771484375 26.957775297619  3.51334635416667 25.883556547619  4.38118489583333 24.9720982142857  C 5.2490234375 24.0606398809524  6.07953559027778 23.3816964285714  6.87272135416667 22.9352678571429  C 7.66590711805556 22.4888392857143  8.50108506944444 22.1354166666667  9.37825520833333 21.875  C 7.90386284722222 19.5498511904762  7.16666666666667 17.0200892857143  7.16666666666667 14.2857142857143  C 7.16666666666667 12.3511904761905  7.54459635416667 10.5050223214286  8.30045572916667 8.74720982142857  C 9.05631510416667 6.98939732142857  10.078125 5.46875  11.3658854166667 4.18526785714285  C 12.6536458333333 2.90178571428572  14.1793619791667 1.88337053571428  15.9430338541667 1.13002232142857  C 17.7067057291667 0.376674107142855  19.5590277777778 0  21.5 0  C 23.4409722222222 0  25.2932942708333 0.376674107142855  27.0569661458333 1.13002232142857  C 28.8206380208333 1.88337053571428  30.3463541666667 2.90178571428572  31.6341145833333 4.18526785714285  C 32.921875 5.46875  33.9436848958333 6.98939732142857  34.6995442708333 8.74720982142857  C 35.4554036458333 10.5050223214286  35.8333333333333 12.3511904761905  35.8333333333333 14.2857142857143  Z M 29.1005859375 6.71037946428572  C 27.0009765625 4.61774553571428  24.4674479166667 3.57142857142857  21.5 3.57142857142857  C 18.5325520833333 3.57142857142857  15.9990234375 4.61774553571428  13.8994140625 6.71037946428572  C 11.7998046875 8.80301339285715  10.75 11.328125  10.75 14.2857142857143  C 10.75 17.2433035714286  11.7998046875 19.7684151785714  13.8994140625 21.8610491071429  C 15.9990234375 23.9536830357143  18.5325520833333 25  21.5 25  C 24.4674479166667 25  27.0009765625 23.9536830357143  29.1005859375 21.8610491071429  C 31.2001953125 19.7684151785714  32.25 17.2433035714286  32.25 14.2857142857143  C 32.25 11.328125  31.2001953125 8.80301339285715  29.1005859375 6.71037946428572  Z M 9.54622395833333 46  L 33.4537760416667 46  C 35.0961371527778 46.4285714285714  36.5005425347222 45.7635788690476  37.6669921875 44.43359375  C 38.8334418402778 43.1036086309524  39.4166666666667 41.4899553571429  39.4166666666667 39.5926339285714  C 39.4166666666667 35.1469494047619  38.6841362847222 31.640625  37.2190755208333 29.0736607142857  C 35.7540147569444 26.5066964285714  33.6497395833333 25.1581101190476  30.90625 25.0279017857143  C 28.2000868055556 27.3902529761905  25.0646701388889 28.5714285714286  21.5 28.5714285714286  C 17.9353298611111 28.5714285714286  14.7999131944444 27.3902529761905  12.09375 25.0279017857143  C 9.35026041666667 25.1581101190476  7.24598524305556 26.5066964285714  5.78092447916667 29.0736607142857  C 4.31586371527778 31.640625  3.58333333333333 35.1469494047619  3.58333333333333 39.5926339285714  C 3.58333333333333 41.4899553571429  4.16655815972222 43.1036086309524  5.3330078125 44.43359375  C 6.49945746527778 45.7635788690476  7.90386284722222 46.4285714285714  9.54622395833333 46  Z " fill-rule="nonzero" fill="#fbfbfb" stroke="none" transform="matrix(1 0 0 1 58 165 )" />
  </g>
</svg>