<?xml version="1.0" encoding="utf-8"?>
<svg version="1.1" xmlns:xlink="http://www.w3.org/1999/xlink" width="590px" height="48px" xmlns="http://www.w3.org/2000/svg">
  <defs>
    <mask fill="white" id="clip67">
      <path d="M 0 43  L 0 5  C 0 2.19999999999999  2.19999999999999 0  5 0  L 382.028169014085 0  L 585 0  C 587.8 0  590 2.19999999999999  590 5  L 590 43  C 590 45.8  587.8 48  585 48  L 5 48  C 2.19999999999999 48  0 45.8  0 43  Z " fill-rule="evenodd" />
    </mask>
  </defs>
  <g transform="matrix(1 0 0 1 -356 -197 )">
    <path d="M 0 43  L 0 5  C 0 2.19999999999999  2.19999999999999 0  5 0  L 382.028169014085 0  L 585 0  C 587.8 0  590 2.19999999999999  590 5  L 590 43  C 590 45.8  587.8 48  585 48  L 5 48  C 2.19999999999999 48  0 45.8  0 43  Z " fill-rule="nonzero" fill="#f3f3f3" stroke="none" transform="matrix(1 0 0 1 356 197 )" />
    <path d="M 0 43  L 0 5  C 0 2.19999999999999  2.19999999999999 0  5 0  L 382.028169014085 0  L 585 0  C 587.8 0  590 2.19999999999999  590 5  L 590 43  C 590 45.8  587.8 48  585 48  L 5 48  C 2.19999999999999 48  0 45.8  0 43  Z " stroke-width="2" stroke="#ffffff" fill="none" stroke-opacity="0.596078431372549" transform="matrix(1 0 0 1 356 197 )" mask="url(#clip67)" />
  </g>
</svg>