<?xml version="1.0" encoding="utf-8"?>
<svg version="1.1" xmlns:xlink="http://www.w3.org/1999/xlink" width="590px" height="48px" xmlns="http://www.w3.org/2000/svg">
  <g transform="matrix(1 0 0 1 -356 -296 )">
    <path d="M 357 301  A 4 4 0 0 1 361 297 L 941 297  A 4 4 0 0 1 945 301 L 945 339  A 4 4 0 0 1 941 343 L 361 343  A 4 4 0 0 1 357 339 L 357 301  Z " fill-rule="nonzero" fill="#f3f3f3" stroke="none" />
    <path d="M 356.5 301  A 4.5 4.5 0 0 1 361 296.5 L 941 296.5  A 4.5 4.5 0 0 1 945.5 301 L 945.5 339  A 4.5 4.5 0 0 1 941 343.5 L 361 343.5  A 4.5 4.5 0 0 1 356.5 339 L 356.5 301  Z " stroke-width="1" stroke="#ffffff" fill="none" stroke-opacity="0.596078431372549" />
  </g>
</svg>