<?xml version="1.0" encoding="utf-8"?>
<svg version="1.1" xmlns:xlink="http://www.w3.org/1999/xlink" width="30px" height="30px" xmlns="http://www.w3.org/2000/svg">
  <g transform="matrix(1 0 0 1 -27 -8 )">
    <path d="M 18.53515625 18.53515625  C 19.51171875 17.55859375  20 16.3802083333333  20 15  C 20 13.6197916666667  19.51171875 12.44140625  18.53515625 11.46484375  C 17.55859375 10.48828125  16.3802083333333 10  15 10  C 13.6197916666667 10  12.44140625 10.48828125  11.46484375 11.46484375  C 10.48828125 12.44140625  10 13.6197916666667  10 15  C 10 16.3802083333333  10.48828125 17.55859375  11.46484375 18.53515625  C 12.44140625 19.51171875  13.6197916666667 20  15 20  C 16.3802083333333 20  17.55859375 19.51171875  18.53515625 18.53515625  Z M 29.84375 12.412109375  C 29.9479166666667 12.548828125  30 12.7018229166667  30 12.87109375  L 30 17.20703125  C 30 17.36328125  29.9479166666667 17.5130208333333  29.84375 17.65625  C 29.7395833333333 17.7994791666667  29.609375 17.8841145833333  29.453125 17.91015625  L 25.83984375 18.45703125  C 25.5924479166667 19.16015625  25.3385416666667 19.7526041666667  25.078125 20.234375  C 25.5338541666667 20.8854166666667  26.23046875 21.7838541666667  27.16796875 22.9296875  C 27.2981770833333 23.0859375  27.36328125 23.2486979166667  27.36328125 23.41796875  C 27.36328125 23.5872395833333  27.3046875 23.7369791666667  27.1875 23.8671875  C 26.8359375 24.3489583333333  26.19140625 25.0520833333333  25.25390625 25.9765625  C 24.31640625 26.9010416666667  23.7044270833333 27.36328125  23.41796875 27.36328125  C 23.26171875 27.36328125  23.0924479166667 27.3046875  22.91015625 27.1875  L 20.21484375 25.078125  C 19.6419270833333 25.3776041666667  19.0494791666667 25.625  18.4375 25.8203125  C 18.2291666666667 27.5911458333333  18.0403645833333 28.8020833333333  17.87109375 29.453125  C 17.7799479166667 29.8177083333333  17.5455729166667 30  17.16796875 30  L 12.83203125 30  C 12.6497395833333 30  12.490234375 29.9446614583333  12.353515625 29.833984375  C 12.216796875 29.7233072916667  12.1419270833333 29.5833333333333  12.12890625 29.4140625  L 11.58203125 25.8203125  C 10.9440104166667 25.6119791666667  10.3580729166667 25.37109375  9.82421875 25.09765625  L 7.0703125 27.1875  C 6.94010416666667 27.3046875  6.77734375 27.36328125  6.58203125 27.36328125  C 6.39973958333333 27.36328125  6.23697916666667 27.2916666666667  6.09375 27.1484375  C 4.453125 25.6640625  3.37890625 24.5703125  2.87109375 23.8671875  C 2.77994791666667 23.7369791666667  2.734375 23.5872395833333  2.734375 23.41796875  C 2.734375 23.26171875  2.78645833333333 23.1119791666667  2.890625 22.96875  C 3.0859375 22.6953125  3.41796875 22.2623697916667  3.88671875 21.669921875  C 4.35546875 21.0774739583333  4.70703125 20.6184895833333  4.94140625 20.29296875  C 4.58984375 19.6419270833333  4.32291666666667 18.9973958333333  4.140625 18.359375  L 0.56640625 17.83203125  C 0.397135416666667 17.8059895833333  0.260416666666667 17.724609375  0.15625 17.587890625  C 0.0520833333333333 17.451171875  0 17.2981770833333  0 17.12890625  L 0 12.79296875  C 0 12.63671875  0.0520833333333333 12.4869791666667  0.15625 12.34375  C 0.260416666666667 12.2005208333333  0.384114583333333 12.1158854166667  0.52734375 12.08984375  L 4.16015625 11.54296875  C 4.34244791666667 10.9440104166667  4.59635416666667 10.3450520833333  4.921875 9.74609375  C 4.40104166666667 9.00390625  3.70442708333333 8.10546875  2.83203125 7.05078125  C 2.70182291666667 6.89453125  2.63671875 6.73828125  2.63671875 6.58203125  C 2.63671875 6.45182291666667  2.6953125 6.30208333333333  2.8125 6.1328125  C 3.15104166666667 5.6640625  3.79231770833333 4.96419270833333  4.736328125 4.033203125  C 5.68033854166667 3.10221354166666  6.29557291666667 2.63671875  6.58203125 2.63671875  C 6.75130208333333 2.63671875  6.92057291666667 2.70182291666667  7.08984375 2.83203125  L 9.78515625 4.921875  C 10.3580729166667 4.62239583333333  10.9505208333333 4.375  11.5625 4.1796875  C 11.7708333333333 2.40885416666667  11.9596354166667 1.19791666666666  12.12890625 0.546874999999999  C 12.2200520833333 0.182291666666665  12.4544270833333 0  12.83203125 0  L 17.16796875 0  C 17.3502604166667 0  17.509765625 0.0553385416666641  17.646484375 0.166015624999999  C 17.783203125 0.27669270833333  17.8580729166667 0.416666666666665  17.87109375 0.5859375  L 18.41796875 4.1796875  C 19.0559895833333 4.38802083333333  19.6419270833333 4.62890625  20.17578125 4.90234375  L 22.94921875 2.8125  C 23.06640625 2.6953125  23.22265625 2.63671875  23.41796875 2.63671875  C 23.5872395833333 2.63671875  23.75 2.70182291666667  23.90625 2.83203125  C 25.5859375 4.38151041666667  26.66015625 5.48828125  27.12890625 6.15234375  C 27.2200520833333 6.25651041666667  27.265625 6.39973958333333  27.265625 6.58203125  C 27.265625 6.73828125  27.2135416666667 6.88802083333333  27.109375 7.03125  C 26.9140625 7.3046875  26.58203125 7.73763020833333  26.11328125 8.330078125  C 25.64453125 8.92252604166667  25.29296875 9.38151041666666  25.05859375 9.70703125  C 25.3971354166667 10.3580729166667  25.6640625 10.99609375  25.859375 11.62109375  L 29.43359375 12.16796875  C 29.6028645833333 12.1940104166667  29.7395833333333 12.275390625  29.84375 12.412109375  Z " fill-rule="nonzero" fill="#014085" stroke="none" transform="matrix(1 0 0 1 27 8 )" />
  </g>
</svg>