<?xml version="1.0" encoding="utf-8"?>
<svg version="1.1" xmlns:xlink="http://www.w3.org/1999/xlink" width="30px" height="30px" xmlns="http://www.w3.org/2000/svg">
  <g transform="matrix(1 0 0 1 -27 -8 )">
    <path d="M 30 5.94987623762376  C 30 6.43873762376237  29.7569444444444 6.85643564356435  29.2708333333333 7.2029702970297  L 21.6666666666667 12.6237623762376  L 21.6666666666667 27.9207920792079  C 21.6666666666667 28.490099009901  21.3802083333333 28.9789603960396  20.8072916666667 29.3873762376238  C 20.234375 29.7957920792079  19.5486111111111 30  18.75 30  C 17.9513888888889 30  17.265625 29.7957920792079  16.6927083333333 29.3873762376238  C 16.1197916666667 28.9789603960396  15.8333333333333 28.490099009901  15.8333333333333 27.9207920792079  L 15.8333333333333 20.7920792079208  L 14.1666666666667 20.7920792079208  L 14.1666666666667 27.9207920792079  C 14.1666666666667 28.490099009901  13.8802083333333 28.9789603960396  13.3072916666667 29.3873762376238  C 12.734375 29.7957920792079  12.0486111111111 30  11.25 30  C 10.4513888888889 30  9.765625 29.7957920792079  9.19270833333333 29.3873762376238  C 8.61979166666667 28.9789603960396  8.33333333333333 28.490099009901  8.33333333333333 27.9207920792079  L 8.33333333333333 12.6237623762376  L 0.729166666666667 7.2029702970297  C 0.243055555555556 6.85643564356435  0 6.43564356435643  0 5.94059405940594  C 0 5.44554455445545  0.243055555555556 5.02475247524752  0.729166666666667 4.67821782178218  C 1.23263888888889 4.33168316831683  1.82725694444444 4.15841584158416  2.51302083333333 4.15841584158416  C 3.19878472222222 4.15841584158416  3.78472222222222 4.33168316831683  4.27083333333333 4.67821782178218  L 10.2083333333333 8.91089108910891  L 19.7916666666667 8.91089108910891  L 25.7291666666667 4.67821782178218  C 26.2152777777778 4.33168316831683  26.8055555555556 4.15841584158416  27.5 4.15841584158416  C 28.1944444444444 4.15841584158416  28.7847222222222 4.33168316831683  29.2708333333333 4.67821782178218  C 29.7569444444444 5.03712871287129  30 5.46101485148515  30 5.94987623762376  Z M 19.1276041666667 1.21596534653465  C 20.2647569444444 2.02660891089109  20.8333333333333 3.00742574257426  20.8333333333333 4.15841584158416  C 20.8333333333333 5.30940594059406  20.2647569444444 6.29022277227723  19.1276041666667 7.10086633663366  C 17.9904513888889 7.9115099009901  16.6145833333333 8.31683168316832  15 8.31683168316832  C 13.3854166666667 8.31683168316832  12.0095486111111 7.9115099009901  10.8723958333333 7.10086633663366  C 9.73524305555556 6.29022277227723  9.16666666666667 5.30940594059406  9.16666666666667 4.15841584158416  C 9.16666666666667 3.00742574257426  9.73524305555556 2.02660891089109  10.8723958333333 1.21596534653465  C 12.0095486111111 0.405321782178215  13.3854166666667 0  15 0  C 16.6145833333333 0  17.9904513888889 0.405321782178215  19.1276041666667 1.21596534653465  Z " fill-rule="nonzero" fill="#014085" stroke="none" transform="matrix(1 0 0 1 27 8 )" />
  </g>
</svg>